<svg viewBox="0 0 1920 1080" height="2in" width="3in" xmlns="http://www.w3.org/2000/svg">
  <path d="M 76.30,451.70
           C 65.10,451.70 53.60,450.40 41.80,447.80
             29.99,445.20 19.80,441.20 11.20,435.80
             11.20,435.80 13.00,391.41 13.00,391.41
             13.00,391.41 40.91,391.41 40.91,391.41
             40.91,391.41 46.91,428.30 46.91,428.30
             51.50,430.10 56.09,431.45 60.69,432.36
             65.29,433.26 70.39,433.70 76.00,433.70
             86.80,433.70 95.00,430.95 100.59,425.45
             106.20,419.95 109.00,413.20 109.00,405.20
             109.00,397.20 106.95,391.01 102.84,386.61
             98.75,382.20 92.20,378.00 83.20,374.00
             83.20,374.00 70.30,368.30 70.30,368.30
             52.70,360.10 39.05,351.00 29.34,341.00
             19.64,331.00 14.80,317.70 14.80,301.09
             14.80,283.09 21.55,268.95 35.05,258.66
             48.55,248.36 66.60,243.20 89.20,243.20
             100.00,243.20 110.35,244.55 120.25,247.25
             130.14,249.95 138.70,253.70 145.91,258.50
             145.91,258.50 143.50,300.50 143.50,300.50
             143.50,300.50 115.91,300.50 115.91,300.50
             115.91,300.50 110.20,265.09 110.20,265.09
             107.00,263.90 103.80,262.95 100.59,262.25
             97.39,261.55 93.89,261.20 90.09,261.20
             81.50,261.20 74.20,263.70 68.20,268.70
             62.20,273.70 59.20,280.30 59.20,288.50
             59.20,296.50 61.55,302.85 66.25,307.55
             70.95,312.25 77.70,316.59 86.50,320.59
             86.50,320.59 100.59,326.91 100.59,326.91
             119.59,335.50 133.34,344.55 141.84,354.05
             150.34,363.55 154.59,375.90 154.59,391.09
             154.59,408.70 147.94,423.20 134.64,434.61
             121.35,446.00 101.90,451.70 76.30,451.70 Z
           M 225.41,450.50
           C 212.00,450.50 201.49,447.25 193.89,440.75
             186.30,434.25 182.50,423.60 182.50,408.80
             182.50,403.60 182.55,398.75 182.64,394.25
             182.74,389.75 182.80,384.60 182.80,378.80
             182.80,378.80 182.80,321.50 182.80,321.50
             182.80,321.50 163.30,321.50 163.30,321.50
             163.30,321.50 163.30,303.80 163.30,303.80
             163.30,303.80 185.50,300.80 185.50,300.80
             185.50,300.80 200.50,258.80 200.50,258.80
             200.50,258.80 231.09,258.80 231.09,258.80
             231.09,258.80 230.50,301.09 230.50,301.09
             230.50,301.09 262.00,301.09 262.00,301.09
             262.00,301.09 262.00,321.50 262.00,321.50
             262.00,321.50 230.50,321.50 230.50,321.50
             230.50,321.50 230.50,405.50 230.50,405.50
             230.50,412.50 231.95,417.65 234.84,420.95
             237.75,424.26 241.40,425.91 245.80,425.91
             250.99,425.91 256.39,423.70 262.00,419.30
             262.00,419.30 269.50,426.50 269.50,426.50
             265.50,434.11 259.95,440.01 252.84,444.20
             245.75,448.40 236.60,450.50 225.41,450.50 Z
           M 348.80,311.91
           C 343.20,311.91 338.05,315.36 333.34,322.25
             328.64,329.15 326.00,341.80 325.41,360.20
             325.41,360.20 350.91,360.20 350.91,360.20
             358.10,360.20 362.95,358.76 365.45,355.86
             367.95,352.95 369.20,348.10 369.20,341.30
             369.20,331.30 367.20,323.90 363.20,319.11
             359.20,314.31 354.40,311.91 348.80,311.91 Z
           M 349.41,450.50
           C 334.80,450.50 321.90,447.45 310.70,441.36
             299.50,435.26 290.70,426.45 284.30,414.95
             277.90,403.45 274.70,389.70 274.70,373.70
             274.70,356.90 278.45,342.75 285.95,331.25
             293.45,319.75 303.10,311.05 314.89,305.16
             326.69,299.25 338.99,296.30 351.80,296.30
             364.99,296.30 376.24,299.10 385.55,304.70
             394.85,310.30 401.90,317.84 406.70,327.34
             411.50,336.84 413.91,347.70 413.91,359.91
             413.91,365.70 413.30,371.00 412.09,375.80
             412.09,375.80 325.41,375.80 325.41,375.80
             326.41,391.60 330.75,403.25 338.45,410.75
             346.15,418.25 355.20,422.00 365.59,422.00
             373.80,422.00 380.80,420.45 386.59,417.36
             392.39,414.26 397.50,410.40 401.91,405.80
             401.91,405.80 412.41,415.41 412.41,415.41
             406.20,427.20 397.79,436.00 387.19,441.80
             376.59,447.60 364.00,450.50 349.41,450.50 Z
           M 520.59,314.30
           C 520.59,314.30 520.59,301.09 520.59,301.09
             520.59,301.09 577.30,301.09 577.30,301.09
             577.30,301.09 577.30,314.30 577.30,314.30
             577.30,314.30 559.91,317.59 559.91,317.59
             559.91,317.59 510.41,446.59 510.41,446.59
             510.41,446.59 487.59,446.59 487.59,446.59
             487.59,446.59 433.59,317.30 433.59,317.30
             433.59,317.30 418.91,314.30 418.91,314.30
             418.91,314.30 418.91,301.09 418.91,301.09
             418.91,301.09 504.09,301.09 504.09,301.09
             504.09,301.09 504.09,314.30 504.09,314.30
             504.09,314.30 485.20,318.20 485.20,318.20
             485.20,318.20 513.41,395.00 513.41,395.00
             513.41,395.00 539.50,317.91 539.50,317.91
             539.50,317.91 520.59,314.30 520.59,314.30 Z
           M 653.80,311.91
           C 648.20,311.91 643.05,315.36 638.34,322.25
             633.64,329.15 631.00,341.80 630.41,360.20
             630.41,360.20 655.91,360.20 655.91,360.20
             663.10,360.20 667.95,358.76 670.45,355.86
             672.95,352.95 674.20,348.10 674.20,341.30
             674.20,331.30 672.20,323.90 668.20,319.11
             664.20,314.31 659.40,311.91 653.80,311.91 Z
           M 654.41,450.50
           C 639.80,450.50 626.90,447.45 615.70,441.36
             604.50,435.26 595.70,426.45 589.30,414.95
             582.90,403.45 579.70,389.70 579.70,373.70
             579.70,356.90 583.45,342.75 590.95,331.25
             598.45,319.75 608.10,311.05 619.89,305.16
             631.69,299.25 643.99,296.30 656.80,296.30
             669.99,296.30 681.24,299.10 690.55,304.70
             699.85,310.30 706.90,317.84 711.70,327.34
             716.50,336.84 718.91,347.70 718.91,359.91
             718.91,365.70 718.30,371.00 717.09,375.80
             717.09,375.80 630.41,375.80 630.41,375.80
             631.41,391.60 635.75,403.25 643.45,410.75
             651.15,418.25 660.20,422.00 670.59,422.00
             678.80,422.00 685.80,420.45 691.59,417.36
             697.39,414.26 702.50,410.40 706.91,405.80
             706.91,405.80 717.41,415.41 717.41,415.41
             711.20,427.20 702.79,436.00 692.19,441.80
             681.59,447.60 669.00,450.50 654.41,450.50 Z
           M 735.41,446.00
           C 735.41,446.00 735.41,431.91 735.41,431.91
             735.41,431.91 751.59,428.30 751.59,428.30
             751.80,421.10 751.91,413.30 751.91,404.91
             751.91,396.50 751.91,389.20 751.91,383.00
             751.91,383.00 751.91,365.59 751.91,365.59
             751.91,357.40 751.85,351.05 751.75,346.55
             751.64,342.05 751.39,336.80 751.00,330.80
             751.00,330.80 732.70,328.09 732.70,328.09
             732.70,328.09 732.70,316.41 732.70,316.41
             732.70,316.41 791.80,296.30 791.80,296.30
             791.80,296.30 797.20,299.59 797.20,299.59
             797.20,299.59 799.00,321.20 799.00,321.20
             806.80,312.01 814.55,305.56 822.25,301.86
             829.95,298.15 838.20,296.30 847.00,296.30
             860.00,296.30 870.45,300.60 878.34,309.20
             886.25,317.80 890.20,330.70 890.20,347.91
             890.20,347.91 890.20,383.00 890.20,383.00
             890.20,389.61 890.20,397.06 890.20,405.36
             890.20,413.65 890.30,421.50 890.50,428.91
             890.50,428.91 905.50,431.91 905.50,431.91
             905.50,431.91 905.50,446.00 905.50,446.00
             905.50,446.00 826.30,446.00 826.30,446.00
             826.30,446.00 826.30,431.91 826.30,431.91
             826.30,431.91 841.91,428.59 841.91,428.59
             842.10,421.20 842.20,413.35 842.20,405.05
             842.20,396.75 842.20,389.40 842.20,383.00
             842.20,383.00 842.20,351.50 842.20,351.50
             842.20,341.90 840.90,335.15 838.30,331.25
             835.70,327.36 831.50,325.41 825.70,325.41
             817.90,325.41 809.30,329.01 799.91,336.20
             799.91,336.20 799.91,383.00 799.91,383.00
             799.91,389.20 799.91,396.55 799.91,405.05
             799.91,413.55 800.00,421.50 800.20,428.91
             800.20,428.91 814.30,431.91 814.30,431.91
             814.30,431.91 814.30,446.00 814.30,446.00
             814.30,446.00 735.41,446.00 735.41,446.00 Z
           M 980.00,304.70
           C 980.00,304.70 981.20,248.91 981.20,248.91
             981.20,248.91 1157.30,248.91 1157.30,248.91
             1157.30,248.91 1158.20,304.70 1158.20,304.70
             1158.20,304.70 1133.30,304.70 1133.30,304.70
             1133.30,304.70 1127.91,265.70 1127.91,265.70
             1127.91,265.70 1094.91,265.70 1094.91,265.70
             1094.70,278.10 1094.54,290.65 1094.44,303.36
             1094.34,316.06 1094.30,328.91 1094.30,341.91
             1094.30,341.91 1094.30,352.70 1094.30,352.70
             1094.30,365.10 1094.34,377.50 1094.44,389.91
             1094.54,402.30 1094.70,414.70 1094.91,427.09
             1094.91,427.09 1120.70,429.80 1120.70,429.80
             1120.70,429.80 1120.70,446.00 1120.70,446.00
             1120.70,446.00 1017.80,446.00 1017.80,446.00
             1017.80,446.00 1017.80,429.80 1017.80,429.80
             1017.80,429.80 1043.30,427.09 1043.30,427.09
             1043.70,414.90 1043.91,402.60 1043.91,390.20
             1043.91,377.80 1043.91,365.40 1043.91,353.00
             1043.91,353.00 1043.91,341.91 1043.91,341.91
             1043.91,329.30 1043.91,316.65 1043.91,303.95
             1043.91,291.26 1043.70,278.51 1043.30,265.70
             1043.30,265.70 1010.59,265.70 1010.59,265.70
             1010.59,265.70 1004.91,304.70 1004.91,304.70
             1004.91,304.70 980.00,304.70 980.00,304.70 Z
           M 1223.80,311.91
           C 1218.20,311.91 1213.05,315.36 1208.34,322.25
             1203.64,329.15 1201.00,341.80 1200.41,360.20
             1200.41,360.20 1225.91,360.20 1225.91,360.20
             1233.10,360.20 1237.95,358.76 1240.45,355.86
             1242.95,352.95 1244.20,348.10 1244.20,341.30
             1244.20,331.30 1242.20,323.90 1238.20,319.11
             1234.20,314.31 1229.40,311.91 1223.80,311.91 Z
           M 1224.41,450.50
           C 1209.80,450.50 1196.90,447.45 1185.70,441.36
             1174.50,435.26 1165.70,426.45 1159.30,414.95
             1152.90,403.45 1149.70,389.70 1149.70,373.70
             1149.70,356.90 1153.45,342.75 1160.95,331.25
             1168.45,319.75 1178.10,311.05 1189.89,305.16
             1201.69,299.25 1213.99,296.30 1226.80,296.30
             1239.99,296.30 1251.24,299.10 1260.55,304.70
             1269.85,310.30 1276.90,317.84 1281.70,327.34
             1286.50,336.84 1288.91,347.70 1288.91,359.91
             1288.91,365.70 1288.30,371.00 1287.09,375.80
             1287.09,375.80 1200.41,375.80 1200.41,375.80
             1201.41,391.60 1205.75,403.25 1213.45,410.75
             1221.15,418.25 1230.20,422.00 1240.59,422.00
             1248.80,422.00 1255.80,420.45 1261.59,417.36
             1267.39,414.26 1272.50,410.40 1276.91,405.80
             1276.91,405.80 1287.41,415.41 1287.41,415.41
             1281.20,427.20 1272.79,436.00 1262.19,441.80
             1251.59,447.60 1239.00,450.50 1224.41,450.50 Z
           M 1305.09,446.00
           C 1305.09,446.00 1305.09,431.91 1305.09,431.91
             1305.09,431.91 1321.59,428.59 1321.59,428.59
             1321.80,421.20 1321.91,413.30 1321.91,404.91
             1321.91,396.50 1321.91,389.20 1321.91,383.00
             1321.91,383.00 1321.91,365.30 1321.91,365.30
             1321.91,359.70 1321.85,355.11 1321.75,351.50
             1321.64,347.90 1321.54,344.55 1321.44,341.45
             1321.34,338.35 1321.20,334.80 1321.00,330.80
             1321.00,330.80 1302.70,328.09 1302.70,328.09
             1302.70,328.09 1302.70,316.41 1302.70,316.41
             1302.70,316.41 1361.80,296.30 1361.80,296.30
             1361.80,296.30 1367.20,299.59 1367.20,299.59
             1367.20,299.59 1369.91,335.00 1369.91,335.00
             1374.10,322.20 1380.00,312.55 1387.59,306.05
             1395.20,299.55 1402.70,296.30 1410.09,296.30
             1416.70,296.30 1422.40,298.15 1427.20,301.86
             1432.00,305.56 1435.00,311.11 1436.20,318.50
             1436.00,326.30 1433.91,332.36 1429.91,336.66
             1425.91,340.95 1420.91,343.09 1414.91,343.09
             1406.50,343.09 1398.80,338.40 1391.80,329.00
             1391.80,329.00 1390.00,326.59 1390.00,326.59
             1385.60,330.80 1381.55,336.11 1377.84,342.50
             1374.14,348.90 1371.50,355.59 1369.91,362.59
             1369.91,362.59 1369.91,383.00 1369.91,383.00
             1369.91,389.20 1369.91,396.30 1369.91,404.30
             1369.91,412.30 1370.00,419.80 1370.20,426.80
             1370.20,426.80 1393.91,431.91 1393.91,431.91
             1393.91,431.91 1393.91,446.00 1393.91,446.00
             1393.91,446.00 1305.09,446.00 1305.09,446.00 Z
           M 1444.41,446.00
           C 1444.41,446.00 1444.41,431.91 1444.41,431.91
             1444.41,431.91 1460.59,428.30 1460.59,428.30
             1460.80,421.10 1460.91,413.30 1460.91,404.91
             1460.91,396.50 1460.91,389.20 1460.91,383.00
             1460.91,383.00 1460.91,365.59 1460.91,365.59
             1460.91,357.40 1460.85,351.05 1460.75,346.55
             1460.64,342.05 1460.39,336.80 1460.00,330.80
             1460.00,330.80 1441.70,328.09 1441.70,328.09
             1441.70,328.09 1441.70,316.41 1441.70,316.41
             1441.70,316.41 1500.80,296.30 1500.80,296.30
             1500.80,296.30 1506.20,299.59 1506.20,299.59
             1506.20,299.59 1508.00,321.20 1508.00,321.20
             1515.80,312.01 1523.55,305.56 1531.25,301.86
             1538.95,298.15 1547.20,296.30 1556.00,296.30
             1569.00,296.30 1579.45,300.60 1587.34,309.20
             1595.25,317.80 1599.20,330.70 1599.20,347.91
             1599.20,347.91 1599.20,383.00 1599.20,383.00
             1599.20,389.61 1599.20,397.06 1599.20,405.36
             1599.20,413.65 1599.30,421.50 1599.50,428.91
             1599.50,428.91 1614.50,431.91 1614.50,431.91
             1614.50,431.91 1614.50,446.00 1614.50,446.00
             1614.50,446.00 1535.30,446.00 1535.30,446.00
             1535.30,446.00 1535.30,431.91 1535.30,431.91
             1535.30,431.91 1550.91,428.59 1550.91,428.59
             1551.10,421.20 1551.20,413.35 1551.20,405.05
             1551.20,396.75 1551.20,389.40 1551.20,383.00
             1551.20,383.00 1551.20,351.50 1551.20,351.50
             1551.20,341.90 1549.90,335.15 1547.30,331.25
             1544.70,327.36 1540.50,325.41 1534.70,325.41
             1526.90,325.41 1518.30,329.01 1508.91,336.20
             1508.91,336.20 1508.91,383.00 1508.91,383.00
             1508.91,389.20 1508.91,396.55 1508.91,405.05
             1508.91,413.55 1509.00,421.50 1509.20,428.91
             1509.20,428.91 1523.30,431.91 1523.30,431.91
             1523.30,431.91 1523.30,446.00 1523.30,446.00
             1523.30,446.00 1444.41,446.00 1444.41,446.00 Z
           M 1703.80,311.91
           C 1698.20,311.91 1693.05,315.36 1688.34,322.25
             1683.64,329.15 1681.00,341.80 1680.41,360.20
             1680.41,360.20 1705.91,360.20 1705.91,360.20
             1713.10,360.20 1717.95,358.76 1720.45,355.86
             1722.95,352.95 1724.20,348.10 1724.20,341.30
             1724.20,331.30 1722.20,323.90 1718.20,319.11
             1714.20,314.31 1709.40,311.91 1703.80,311.91 Z
           M 1704.41,450.50
           C 1689.80,450.50 1676.90,447.45 1665.70,441.36
             1654.50,435.26 1645.70,426.45 1639.30,414.95
             1632.90,403.45 1629.70,389.70 1629.70,373.70
             1629.70,356.90 1633.45,342.75 1640.95,331.25
             1648.45,319.75 1658.10,311.05 1669.89,305.16
             1681.69,299.25 1693.99,296.30 1706.80,296.30
             1719.99,296.30 1731.24,299.10 1740.55,304.70
             1749.85,310.30 1756.90,317.84 1761.70,327.34
             1766.50,336.84 1768.91,347.70 1768.91,359.91
             1768.91,365.70 1768.30,371.00 1767.09,375.80
             1767.09,375.80 1680.41,375.80 1680.41,375.80
             1681.41,391.60 1685.75,403.25 1693.45,410.75
             1701.15,418.25 1710.20,422.00 1720.59,422.00
             1728.80,422.00 1735.80,420.45 1741.59,417.36
             1747.39,414.26 1752.50,410.40 1756.91,405.80
             1756.91,405.80 1767.41,415.41 1767.41,415.41
             1761.20,427.20 1752.79,436.00 1742.19,441.80
             1731.59,447.60 1719.00,450.50 1704.41,450.50 Z
           M 1785.09,446.00
           C 1785.09,446.00 1785.09,431.91 1785.09,431.91
             1785.09,431.91 1801.59,428.59 1801.59,428.59
             1801.80,421.20 1801.91,413.30 1801.91,404.91
             1801.91,396.50 1801.91,389.20 1801.91,383.00
             1801.91,383.00 1801.91,365.30 1801.91,365.30
             1801.91,359.70 1801.85,355.11 1801.75,351.50
             1801.64,347.90 1801.54,344.55 1801.44,341.45
             1801.34,338.35 1801.20,334.80 1801.00,330.80
             1801.00,330.80 1782.70,328.09 1782.70,328.09
             1782.70,328.09 1782.70,316.41 1782.70,316.41
             1782.70,316.41 1841.80,296.30 1841.80,296.30
             1841.80,296.30 1847.20,299.59 1847.20,299.59
             1847.20,299.59 1849.91,335.00 1849.91,335.00
             1854.10,322.20 1860.00,312.55 1867.59,306.05
             1875.20,299.55 1882.70,296.30 1890.09,296.30
             1896.70,296.30 1902.40,298.15 1907.20,301.86
             1912.00,305.56 1915.00,311.11 1916.20,318.50
             1916.00,326.30 1913.91,332.36 1909.91,336.66
             1905.91,340.95 1900.91,343.09 1894.91,343.09
             1886.50,343.09 1878.80,338.40 1871.80,329.00
             1871.80,329.00 1870.00,326.59 1870.00,326.59
             1865.60,330.80 1861.55,336.11 1857.84,342.50
             1854.14,348.90 1851.50,355.59 1849.91,362.59
             1849.91,362.59 1849.91,383.00 1849.91,383.00
             1849.91,389.20 1849.91,396.30 1849.91,404.30
             1849.91,412.30 1850.00,419.80 1850.20,426.80
             1850.20,426.80 1873.91,431.91 1873.91,431.91
             1873.91,431.91 1873.91,446.00 1873.91,446.00
             1873.91,446.00 1785.09,446.00 1785.09,446.00 Z" stroke-width="1" stroke="none" fill="#206a5d" id="Path"></path>
</svg>
